<?xml version="1.0" standalone="no"?>
<!DOCTYPE svg PUBLIC "-//W3C//DTD SVG 20010904//EN"
 "http://www.w3.org/TR/2001/REC-SVG-20010904/DTD/svg10.dtd">
<svg version="1.0" xmlns="http://www.w3.org/2000/svg"
 width="236.000000pt" height="236.000000pt" viewBox="0 0 236.000000 236.000000"
 preserveAspectRatio="xMidYMid meet">
<metadata>
Created by potrace 1.14, written by Peter Selinger 2001-2017
</metadata>
<g transform="translate(0.000000,236.000000) scale(0.100000,-0.100000)"
fill="#000000" stroke="none">
<path d="M435 1983 c-40 -9 -112 -67 -141 -112 -26 -41 -29 -55 -29 -126 0
-89 12 -120 67 -174 76 -76 186 -94 285 -46 88 44 137 129 97 169 -28 29 -68
20 -101 -22 -64 -80 -176 -74 -220 12 -43 84 14 184 109 188 35 1 86 -21 107
-46 29 -34 101 -3 101 43 0 27 -56 80 -108 102 -41 18 -118 23 -167 12z"/>
<path d="M1052 1964 c-64 -32 -108 -83 -127 -148 -19 -63 -19 -80 1 -147 30
-102 132 -173 245 -170 157 3 270 160 225 313 -43 148 -207 221 -344 152z
m196 -128 c34 -32 37 -38 37 -91 0 -53 -3 -59 -37 -91 -21 -19 -47 -35 -58
-35 -66 -4 -76 -2 -114 32 -60 52 -61 126 -1 186 29 29 39 33 84 33 44 0 56
-5 89 -34z"/>
<path d="M1714 1972 c-48 -23 -112 -86 -121 -120 -8 -33 14 -69 46 -75 20 -4
33 3 61 32 43 47 73 63 115 63 97 0 157 -102 112 -189 -34 -65 -131 -88 -185
-44 -49 39 -70 46 -97 31 -61 -33 -36 -96 57 -143 123 -64 269 -16 336 108 23
43 23 169 -1 216 -24 48 -69 93 -115 115 -55 27 -157 29 -208 6z"/>
<path d="M475 1431 c-67 -18 -117 -57 -266 -208 -187 -189 -200 -210 -201
-331 0 -94 33 -144 214 -326 176 -176 206 -195 310 -198 102 -2 147 20 250
120 l78 75 72 -72 c87 -85 141 -114 225 -119 98 -7 150 16 249 109 46 43 87
79 91 79 4 0 39 -32 77 -70 82 -83 138 -113 223 -118 116 -8 146 9 331 192
195 192 216 225 217 336 0 115 -19 146 -196 325 -92 94 -169 163 -200 180 -66
36 -146 43 -223 21 -49 -15 -71 -30 -145 -101 l-87 -84 -70 70 c-91 92 -155
124 -249 124 -94 -1 -145 -25 -241 -117 l-77 -74 -73 72 c-40 39 -92 81 -116
93 -49 23 -146 35 -193 22z m156 -287 l66 -66 -26 -46 c-36 -65 -37 -184 -2
-255 26 -54 28 -48 -53 -129 -74 -73 -78 -71 -234 85 -73 72 -137 138 -142
146 -18 30 4 60 138 194 101 100 145 137 162 137 17 0 46 -21 91 -66z m637 0
l69 -67 -26 -46 c-36 -64 -37 -183 -2 -255 l24 -48 -65 -65 c-86 -86 -100 -86
-184 -2 l-64 64 27 53 c37 76 38 166 0 246 l-27 59 66 64 c43 42 74 63 90 63
16 0 46 -22 92 -66z m712 -74 c110 -110 140 -146 140 -167 0 -21 -30 -56 -138
-166 -168 -169 -166 -168 -260 -74 l-65 65 24 48 c34 69 34 180 0 251 l-23 50
68 67 c44 42 77 66 92 66 16 0 64 -42 162 -140z"/>
</g>
</svg>
